#!OML:ASF I:\Random Stuff\random\construction\7_22_03\Session 2\subj1.ASF
:FULLY-SPECIFIED
:DEGREES
677
root 4.01814 17.7609 -7.50713 18.3972 -32.371 -2.6971
lowerback 9.55266 -0.816483 1.80424
upperback 3.36282 -0.915699 1.4959
thorax -1.86739 -0.471597 0.632046
lowerneck -21.9954 0.444209 -2.20573
upperneck 43.6585 -0.377337 2.76179
head 21.4291 -0.336512 1.68417
rclavicle 7.1811e-015 5.91384e-015
rhumerus 5.67521 50.3351 -52.3014
rradius 73.696
rwrist 24.3813
rhand -46.342 42.0114
rfingers 7.12502
rthumb -19.0746 12.9268
lclavicle 7.1811e-015 5.91384e-015
lhumerus -22.5731 -61.6799 107.716
lradius 78.9511
lwrist 72.6457
lhand -27.3669 69.6694
lfingers 7.12502
lthumb -0.774469 -459.648
rfemur -24.9702 5.0325 16.7053
rtibia 14.1566
rfoot -4.84685 -4.9645
rtoes -11.8243
lfemur -22.7649 -4.10049 -12.1681
ltibia 23.9275
lfoot -15.8856 15.1614
ltoes -31.6653
678
root 4.0126 17.7558 -7.51111 18.4416 -32.2422 -2.71743
lowerback 9.56947 -0.921879 1.71787
upperback 3.32987 -1.05863 1.60756
thorax -1.90748 -0.543519 0.812403
lowerneck -22.0057 0.544742 -2.29097
upperneck 43.6478 -0.12822 2.66687
head 21.4105 -0.272876 1.7079
rclavicle -9.10931e-014 3.37437e-014
rhumerus 6.50624 51.1733 -51.2362
rradius 74.1319
rwrist 24.5587
rhand -46.2641 40.8461
rfingers 7.12502
rthumb -18.9997 11.7541
lclavicle -9.10931e-014 3.37437e-014
lhumerus -22.4836 -61.2936 107.66
lradius 78.95
lwrist 72.4838
lhand -27.223 69.6595
lfingers 7.12502
lthumb -0.635429 -459.638
rfemur -24.9625 4.909 16.7808
rtibia 14.0581
rfoot -4.76016 -4.98266
rtoes -11.7301
lfemur -22.8794 -4.0661 -12.1141
ltibia 23.9979
lfoot -15.8151 15.0752
ltoes -31.9921
679
root 4.00788 17.7541 -7.51612 18.4234 -32.1331 -2.67788
lowerback 9.65591 -1.05535 1.55336
upperback 3.2975 -1.24368 1.73404
thorax -1.98207 -0.636687 1.05837
lowerneck -21.9943 0.654066 -2.40818
upperneck 43.6062 0.207371 2.45515
head 21.3583 -0.19844 1.695
rclavicle 3.18055e-015 -7.70291e-015
rhumerus 7.42937 51.9618 -50.0379
rradius 74.4933
rwrist 24.9825
rhand -46.0547 39.8077
rfingers 7.12502
rthumb -18.7983 10.696
lclavicle 3.18055e-015 -7.70291e-015
lhumerus -22.1188 -60.6238 107.351
lradius 78.8449
lwrist 71.4828
lhand -25.59 68.6251
lfingers 7.12502
lthumb 0.94172 -458.603
rfemur -24.8926 4.8268 16.7917
rtibia 13.9193
rfoot -4.64989 -5.00466
rtoes -11.7082
lfemur -22.967 -4.02029 -12.1157
ltibia 24.0761
lfoot -15.8653 14.9527
ltoes -32.0045
680
root 4.00166 17.755 -7.52237 18.3893 -32.0242 -2.70569
lowerback 9.79245 -1.13376 1.52401
upperback 3.27767 -1.34458 1.77846
thorax -2.07524 -0.687267 1.13562
lowerneck -21.9548 0.71757 -2.44142
upperneck 43.5591 0.398034 2.3083
head 21.3022 -0.153269 1.66664
rclavicle 4.81556e-014 2.3556e-014
rhumerus 8.13905 52.647 -49.0617
rradius 74.6222
rwrist 25.2626
rhand -46.0921 38.7825
rfingers 7.12502
rthumb -18.8343 9.67432
lclavicle 4.81556e-014 2.3556e-014
lhumerus -22.1278 -60.4045 107.29
lradius 79.067
lwrist 71.7079
lhand -26.1255 69.2514
lfingers 7.12502
lthumb 0.4245 -459.231
rfemur -24.785 4.86027 16.8543
rtibia 13.8438
rfoot -4.58887 -5.10544
rtoes -11.879
lfemur -22.9772 -3.91209 -12.0603
ltibia 24.1127
lfoot -15.836 14.7933
ltoes -32.2771
681
root 3.99454 17.7548 -7.52664 18.3975 -31.958 -2.77743
lowerback 9.87708 -1.23682 1.4977
upperback 3.25561 -1.4787 1.8422
thorax -2.14113 -0.754298 1.23421
lowerneck -21.9647 0.88731 -2.69624
upperneck 43.6383 0.715266 2.46099
head 21.3433 -0.0624882 1.86923
rclavicle 2.42517e-014 -4.35338e-014
rhumerus 9.15094 53.5101 -47.9356
rradius 74.5224
rwrist 25.1431
rhand -46.3812 38.092
rfingers 7.12502
rthumb -19.1123 9.01109
lclavicle 2.42517e-014 -4.35338e-014
lhumerus -22.2036 -60.0798 107.282
lradius 79.2749
lwrist 72.0492
lhand -26.8909 69.8594
lfingers 7.12502
lthumb -0.314717 -459.839
rfemur -24.751 4.9187 16.9434
rtibia 13.8712
rfoot -4.61736 -5.19368
rtoes -11.6672
lfemur -22.945 -3.84423 -11.9645
ltibia 24.0831
lfoot -15.8167 14.6761
ltoes -32.3852
682
root 3.98991 17.755 -7.52763 18.4292 -31.9294 -2.75805
lowerback 9.85425 -1.4136 1.31261
upperback 3.23341 -1.72659 1.97216
thorax -2.13963 -0.878211 1.50103
lowerneck -21.8579 1.02846 -2.91617
upperneck 43.4964 1.14334 2.25671
head 21.1841 0.0325543 1.89482
rclavicle 8.22223e-014 -1.69464e-014
rhumerus 10.7054 54.6028 -46.3448
rradius 74.4078
rwrist 24.6854
rhand -46.6449 37.5651
rfingers 7.12502
rthumb -19.3659 8.50941
lclavicle 8.22223e-014 -1.69464e-014
lhumerus -22.1006 -59.432 107.167
lradius 79.3381
lwrist 72.0137
lhand -26.9442 69.8617
lfingers 7.12502
lthumb -0.366187 -459.841
rfemur -24.8095 4.87659 16.9394
rtibia 13.9168
rfoot -4.68748 -5.14387
rtoes -11.3557
lfemur -22.9624 -3.87097 -11.9552
ltibia 24.0297
lfoot -15.8325 14.6455
ltoes -32.1326
683
root 3.98718 17.7576 -7.52794 18.4437 -31.9011 -2.71522
lowerback 9.8259 -1.52363 1.20648
upperback 3.22982 -1.88166 2.01075
thorax -2.12062 -0.955525 1.61754
lowerneck -21.8024 1.11203 -3.01739
upperneck 43.4253 1.38108 2.13633
head 21.1039 0.0879187 1.90178
rclavicle -1.52816e-014 3.95581e-014
rhumerus 11.8783 55.3601 -45.1466
rradius 74.3123
rwrist 24.2739
rhand -46.8476 37.4996
rfingers 7.12502
rthumb -19.5607 8.46362
lclavicle -1.52816e-014 3.95581e-014
lhumerus -22.092 -59.1692 107.107
lradius 79.3621
lwrist 71.9865
lhand -26.8731 69.7805
lfingers 7.12502
lthumb -0.297538 -459.76
rfemur -24.8654 4.81423 16.9119
rtibia 13.9671
rfoot -4.75283 -5.03971
rtoes -11.613
lfemur -22.9745 -3.99822 -11.9538
ltibia 23.9747
lfoot -15.8158 14.7031
ltoes -31.7392
684
root 3.98336 17.7589 -7.53093 18.4081 -31.8976 -2.69579
lowerback 9.85956 -1.58914 1.12493
upperback 3.27286 -1.97646 2.01583
thorax -2.08983 -1.00308 1.67964
lowerneck -21.8212 1.20322 -3.08975
upperneck 43.4196 1.59775 2.06306
head 21.0947 0.145117 1.92669
rclavicle 3.02401e-014 -5.06155e-014
rhumerus 12.8773 55.8599 -44.1735
rradius 74.2513
rwrist 24.0125
rhand -47.0438 37.6083
rfingers 7.12502
rthumb -19.7494 8.59161
lclavicle 3.02401e-014 -5.06155e-014
lhumerus -22.0062 -59.0361 106.975
lradius 79.3718
lwrist 71.8383
lhand -26.8683 69.8135
lfingers 7.12502
lthumb -0.292875 -459.793
rfemur -24.8644 4.7797 16.9237
rtibia 14.0252
rfoot -4.80362 -4.96459
rtoes -11.8505
lfemur -22.9136 -4.14132 -11.9225
ltibia 23.9242
lfoot -15.8643 14.7917
ltoes -31.5274
685
root 3.9789 17.7586 -7.53629 18.4077 -31.9318 -2.6819
lowerback 9.85618 -1.69477 0.951192
upperback 3.32247 -2.13256 2.09417
thorax -2.02402 -1.08196 1.87487
lowerneck -21.8566 1.35854 -3.21876
upperneck 43.397 1.99238 1.88852
head 21.0711 0.244572 1.94986
rclavicle 1.11816e-014 1.49089e-015
rhumerus 14.3173 56.4869 -42.7581
rradius 74.2792
rwrist 23.6762
rhand -47.1302 37.5714
rfingers 7.12502
rthumb -19.8325 8.56329
lclavicle 1.11816e-014 1.49089e-015
lhumerus -21.781 -58.5654 106.744
lradius 79.4126
lwrist 71.3902
lhand -26.6382 69.9446
lfingers 7.12502
lthumb -0.0706964 -459.924
rfemur -24.896 4.78016 16.9361
rtibia 14.0494
rfoot -4.8349 -4.94158
rtoes -11.3118
lfemur -22.8968 -4.18971 -11.9005
ltibia 23.8936
lfoot -15.882 14.8608
ltoes -31.6947
686
root 3.97385 17.7571 -7.54257 18.4811 -32.0115 -2.70354
lowerback 9.79755 -1.57256 0.991089
upperback 3.34329 -1.97217 1.96263
thorax -1.98035 -1.00155 1.69563
lowerneck -21.8105 1.28755 -2.94587
upperneck 43.3141 1.82693 1.73577
head 21.0141 0.212873 1.78058
rclavicle -3.96948e-014 1.55953e-014
rhumerus 14.7349 56.6892 -42.1963
rradius 74.3077
rwrist 23.194
rhand -47.0813 37.3203
rfingers 7.12502
rthumb -19.7854 8.30734
lclavicle -3.96948e-014 1.55953e-014
lhumerus -22.0496 -58.912 106.823
lradius 79.4968
lwrist 70.8399
lhand -26.2876 69.8534
lfingers 7.12502
lthumb 0.267941 -459.833
rfemur -24.9891 4.86345 16.9558
rtibia 14.0392
rfoot -4.80854 -4.99323
rtoes -10.6281
lfemur -22.9358 -4.20016 -11.8466
ltibia 23.8807
lfoot -15.8935 14.9553
ltoes -31.6081
687
root 3.96842 17.7545 -7.55078 18.5 -32.1192 -2.70404
lowerback 9.79215 -1.01353 1.45425
upperback 3.38615 -1.20545 1.35179
thorax -1.97192 -0.616079 0.716087
lowerneck -21.8246 0.81454 -1.96851
upperneck 43.25 0.603992 1.7912
head 21.0356 -0.057812 1.35078
rclavicle -4.38817e-014 9.44227e-016
rhumerus 13.0075 55.919 -43.532
rradius 74.2456
rwrist 22.6407
rhand -47.2642 37.1636
rfingers 7.12502
rthumb -19.9613 8.16886
lclavicle -4.38817e-014 9.44227e-016
lhumerus -23.1521 -61.0086 107.429
lradius 79.6162
lwrist 70.4698
lhand -26.1553 69.479
lfingers 7.12502
lthumb 0.395719 -459.458
rfemur -25.0262 5.01712 16.939
rtibia 13.9946
rfoot -4.75764 -5.08061
rtoes -10.2213
lfemur -22.9228 -4.23657 -11.7993
ltibia 23.8741
lfoot -16.0402 15.003
ltoes -30.7979
688
root 3.96568 17.754 -7.56004 18.4624 -32.1681 -2.67475
lowerback 9.91975 -0.985614 1.3367
upperback 3.38721 -1.17805 1.29899
thorax -2.03984 -0.602769 0.726959
lowerneck -21.8184 0.822642 -1.76704
upperneck 43.2423 0.616369 1.59368
head 21.0308 -0.0465004 1.21446
rclavicle 6.68413e-015 -1.39149e-015
rhumerus 14.4541 56.6982 -41.9141
rradius 74.1432
rwrist 21.8553
rhand -47.881 37.4677
rfingers 7.12502
rthumb -20.554 8.53578
lclavicle 6.68413e-015 -1.39149e-015
lhumerus -23.4824 -60.9451 107.578
lradius 79.688
lwrist 69.8785
lhand -25.5704 68.599
lfingers 7.12502
lthumb 0.960696 -458.577
rfemur -24.9988 5.08445 16.918
rtibia 13.924
rfoot -4.72479 -5.09683
rtoes -9.67004
lfemur -22.8941 -4.27551 -11.7737
ltibia 23.8575
lfoot -16.1708 14.921
ltoes -29.8998
689
root 3.96396 17.7555 -7.56827 18.4419 -32.1637 -2.67572
lowerback 10.0413 -1.0453 1.19069
upperback 3.39387 -1.26748 1.33892
thorax -2.09551 -0.64792 0.863095
lowerneck -21.8233 0.899352 -1.69962
upperneck 43.2262 0.807987 1.38069
head 21.0169 0.00563511 1.13587
rclavicle -8.96519e-014 1.88845e-014
rhumerus 16.4777 57.6109 -39.7549
rradius 73.9984
rwrist 21.3646
rhand -48.6576 37.5403
rfingers 7.12502
rthumb -21.3002 8.69087
lclavicle -8.96519e-014 1.88845e-014
lhumerus -23.5973 -60.5331 107.537
lradius 79.8158
lwrist 69.2848
lhand -24.5203 67.4425
lfingers 7.12502
lthumb 1.97486 -457.413
rfemur -24.9625 5.06577 16.9534
rtibia 13.8564
rfoot -4.67467 -5.07287
rtoes -9.26511
lfemur -22.8756 -4.33488 -11.717
ltibia 23.8233
lfoot -16.1904 14.8775
ltoes -29.6594
